<svg id="visual" viewBox="0 0 900 600" width="900" height="600" xmlns="http://www.w3.org/2000/svg" xmlns:xlink="http://www.w3.org/1999/xlink" version="1.1"><path d="M0 151L82 151L82 103L164 103L164 163L245 163L245 115L327 115L327 235L409 235L409 235L491 235L491 229L573 229L573 115L655 115L655 229L736 229L736 181L818 181L818 109L900 109L900 91L900 0L900 0L818 0L818 0L736 0L736 0L655 0L655 0L573 0L573 0L491 0L491 0L409 0L409 0L327 0L327 0L245 0L245 0L164 0L164 0L82 0L82 0L0 0Z" fill="#fa7268"></path><path d="M0 193L82 193L82 187L164 187L164 277L245 277L245 235L327 235L327 331L409 331L409 313L491 313L491 271L573 271L573 199L655 199L655 337L736 337L736 307L818 307L818 229L900 229L900 163L900 89L900 107L818 107L818 179L736 179L736 227L655 227L655 113L573 113L573 227L491 227L491 233L409 233L409 233L327 233L327 113L245 113L245 161L164 161L164 101L82 101L82 149L0 149Z" fill="#ea5e66"></path><path d="M0 361L82 361L82 331L164 331L164 373L245 373L245 355L327 355L327 391L409 391L409 373L491 373L491 343L573 343L573 253L655 253L655 385L736 385L736 355L818 355L818 349L900 349L900 295L900 161L900 227L818 227L818 305L736 305L736 335L655 335L655 197L573 197L573 269L491 269L491 311L409 311L409 329L327 329L327 233L245 233L245 275L164 275L164 185L82 185L82 191L0 191Z" fill="#d84a64"></path><path d="M0 553L82 553L82 547L164 547L164 535L245 535L245 553L327 553L327 553L409 553L409 505L491 505L491 565L573 565L573 517L655 517L655 499L736 499L736 547L818 547L818 547L900 547L900 523L900 293L900 347L818 347L818 353L736 353L736 383L655 383L655 251L573 251L573 341L491 341L491 371L409 371L409 389L327 389L327 353L245 353L245 371L164 371L164 329L82 329L82 359L0 359Z" fill="#c53762"></path><path d="M0 601L82 601L82 601L164 601L164 601L245 601L245 601L327 601L327 601L409 601L409 601L491 601L491 601L573 601L573 601L655 601L655 601L736 601L736 601L818 601L818 601L900 601L900 601L900 521L900 545L818 545L818 545L736 545L736 497L655 497L655 515L573 515L573 563L491 563L491 503L409 503L409 551L327 551L327 551L245 551L245 533L164 533L164 545L82 545L82 551L0 551Z" fill="#b0235f"></path></svg>